M48
;Layer_Color=9474304
;FILE_FORMAT=2:4
METRIC,LZ
;TYPE=PLATED
T1F00S00C0.7620
T2F00S00C0.9000
T3F00S00C0.9906
T4F00S00C1.0160
T5F00S00C1.6000
T6F00S00C3.2000
%
T01
X2794Y0254
X3048
X3302
X3556
X381
X4064
X4318
X4572
X508
X5334
X5588
X5842
X6096
X635
X4826Y508
X4572
X41656
X39116
X36576
X34036
X31496
X28956
X26416
X23876
X21336
X18796
X508
X5334
X5588
X5842
X6096
X635
T02
X6364Y2535
Y2789
Y3043
X6618
Y2789
Y2535
T03
X26035Y2689
X28535
X31035
Y4064
X26035
T04
X10795Y19685
Y22225
Y24765
Y27305
Y29845
Y32385
X13335
Y29845
Y27305
Y24765
Y22225
Y19685
T05
X52705Y3683
X42545
X47625Y31115
X31115Y10795
X2032
X13335
X12065Y4318
X0508
X0635Y10795
T06
X1397Y0254
X6604Y0762
Y3556
X1524Y508
M30
