G04*
G04 #@! TF.GenerationSoftware,Altium Limited,Altium Designer,22.5.1 (42)*
G04*
G04 Layer_Color=32768*
%FSLAX44Y44*%
%MOMM*%
G71*
G04*
G04 #@! TF.SameCoordinates,BAD225BF-FD7B-4A52-9E08-1AD1A92B9E85*
G04*
G04*
G04 #@! TF.FilePolarity,Positive*
G04*
G01*
G75*
%ADD12C,0.1524*%
%ADD30C,0.0500*%
G36*
X143510Y341630D02*
Y179070D01*
X4320D01*
Y341630D01*
X143510D01*
D02*
G37*
G36*
X218294Y438445D02*
Y258867D01*
X352406D01*
Y438445D01*
X218294D01*
D02*
G37*
D12*
X143510Y179070D02*
Y341630D01*
X4320D02*
X143510D01*
X4320Y179070D02*
Y341630D01*
Y179070D02*
X143510D01*
X218294Y258867D02*
X352406D01*
Y438445D01*
X218294D02*
X352406D01*
X218294Y258867D02*
Y438445D01*
D30*
X139050Y431800D02*
G03*
X139050Y431800I-18400J0D01*
G01*
X443850Y368300D02*
G03*
X443850Y368300I-18400J0D01*
G01*
X69200Y431800D02*
G03*
X69200Y431800I-18400J0D01*
G01*
X329550Y107950D02*
G03*
X329550Y107950I-18400J0D01*
G01*
X494650Y311150D02*
G03*
X494650Y311150I-18400J0D01*
G01*
X545450Y368300D02*
G03*
X545450Y368300I-18400J0D01*
G01*
X81900Y107950D02*
G03*
X81900Y107950I-18400J0D01*
G01*
X221600D02*
G03*
X221600Y107950I-18400J0D01*
G01*
X151750D02*
G03*
X151750Y107950I-18400J0D01*
G01*
M02*
